<?xml version="1.0" encoding="utf-8"?>
<!-- Generator: Adobe Illustrator 25.0.0, SVG Export Plug-In . SVG Version: 6.00 Build 0)  -->
<svg version="1.1" id="Layer_1" xmlns="http://www.w3.org/2000/svg" xmlns:xlink="http://www.w3.org/1999/xlink" x="0px" y="0px" width="200" height="200" viewBox="0 0 578.7 356.6" style="enable-background:new 0 0 578.7 356.6;" xml:space="preserve">
<style type="text/css">
	.st0{fill:#FFFFFF;}
</style>
<g>
	<g>
		<path class="st0" d="M430.4,178.4l-47.3,47.3l-30.8,30.8l-7.2,7.2l-7.1,7.1l-33.7,33.7c-0.1,0.1-0.2,0.2-0.3,0.3
			c-4.7,4.6-9.6,9-14.7,13.1c-2.7,2.1-5.4,4.2-8.2,6.2s-5.7,3.9-8.6,5.7c-27.3,17.1-59.6,26.9-94.3,26.9C79.8,356.6,0,276.8,0,178.3
			S79.8,0,178.3,0c24.4,0,47.6,4.9,68.7,13.7c8.9,3.7,17.4,8.1,25.5,13.2c-4.1,3.4-8,7.1-11.9,10.9l-0.3,0.3L222.5,76
			c-13.5-5.9-28.5-9.1-44.2-9.1c-61.5,0-111.4,49.9-111.4,111.4c0,61.5,49.9,111.4,111.4,111.4c15.7,0,30.7-3.2,44.2-9.1
			c3.2-1.4,6.4-2.9,9.4-4.6c3-1.6,5.9-3.4,8.7-5.3c5.8-3.9,11.2-8.3,16.1-13.2c0.1-0.1,0.2-0.2,0.3-0.3l32.3-32.2l7-7l7-7l32.5-32.5
			l-32.6-32.6l32.3-32.2l0.1-0.1l0.2-0.2c5.1-5,10.6-9.3,16.5-13l30.8,30.8L430.4,178.4z"/>
		<path class="st0" d="M578.7,178.3c0,98.5-79.8,178.3-178.3,178.3c-24.4,0-47.6-4.9-68.7-13.7c-8.9-3.7-17.4-8.1-25.5-13.2
			c4.1-3.4,8-7.1,11.9-10.9l0.4-0.3l37.8-37.8c13.5,5.9,28.5,9.1,44.2,9.1c61.5,0,111.4-49.9,111.4-111.4
			c0-61.5-49.9-111.4-111.4-111.4c-15.7,0-30.7,3.2-44.2,9.1c-3.2,1.4-6.4,2.9-9.4,4.6c-3,1.6-5.9,3.4-8.7,5.3
			c-5.8,3.9-11.2,8.3-16.1,13.3c-0.1,0.1-0.2,0.2-0.3,0.3l-32.2,32.3l-7,7l-7,7l-32.5,32.5l32.6,32.6l-32.2,32.2l-0.3,0.3
			c-5.1,5-10.6,9.3-16.5,13l-78.1-78.1l47.3-47.3l30.7-30.7l7.2-7.2l7.2-7.2l33.7-33.7c0.1-0.1,0.2-0.2,0.3-0.3
			c4.7-4.6,9.6-9,14.7-13.1c2.6-2.1,5.4-4.2,8.2-6.2c2.8-2,5.7-3.9,8.6-5.7C333.4,9.9,365.7,0,400.4,0
			C498.8,0,578.7,79.8,578.7,178.3z"/>
	</g>
</g>
</svg>
